<?xml version="1.0" encoding="UTF-8" standalone="no"?>
<!-- Created with Inkscape (http://www.inkscape.org/) -->

<svg
   xmlns:dc="http://purl.org/dc/elements/1.1/"
   xmlns:cc="http://creativecommons.org/ns#"
   xmlns:rdf="http://www.w3.org/1999/02/22-rdf-syntax-ns#"
   xmlns:svg="http://www.w3.org/2000/svg"
   xmlns="http://www.w3.org/2000/svg"
   xmlns:sodipodi="http://sodipodi.sourceforge.net/DTD/sodipodi-0.dtd"
   xmlns:inkscape="http://www.inkscape.org/namespaces/inkscape"
   width="210mm"
   height="297mm"
   viewBox="0 0 210 297"
   version="1.1"
   id="svg8"
   sodipodi:docname="mylogo1.svg"
   inkscape:version="0.92.2 5c3e80d, 2017-08-06">
  <defs
     id="defs2">
    <inkscape:perspective
       sodipodi:type="inkscape:persp3d"
       inkscape:vp_x="0 : 148.5 : 1"
       inkscape:vp_y="0 : 1000 : 0"
       inkscape:vp_z="210 : 148.5 : 1"
       inkscape:persp3d-origin="105 : 99 : 1"
       id="perspective905" />
    <inkscape:path-effect
       effect="skeletal"
       id="path-effect833"
       is_visible="true"
       pattern="M 0,5 C 0,2.24 2.24,0 5,0 7.76,0 10,2.24 10,5 10,7.76 7.76,10 5,10 2.24,10 0,7.76 0,5 Z"
       copytype="single_stretched"
       prop_scale="0.26458333"
       scale_y_rel="false"
       spacing="0"
       normal_offset="0"
       tang_offset="0"
       prop_units="false"
       vertical_pattern="false"
       fuse_tolerance="0" />
    <inkscape:path-effect
       effect="skeletal"
       id="path-effect825"
       is_visible="true"
       pattern="M 0,5 C 0,2.24 2.24,0 5,0 7.76,0 10,2.24 10,5 10,7.76 7.76,10 5,10 2.24,10 0,7.76 0,5 Z"
       copytype="single_stretched"
       prop_scale="0.26458333"
       scale_y_rel="false"
       spacing="0"
       normal_offset="0"
       tang_offset="0"
       prop_units="false"
       vertical_pattern="false"
       fuse_tolerance="0" />
    <inkscape:path-effect
       effect="skeletal"
       id="path-effect821"
       is_visible="true"
       pattern="M 0,5 C 0,2.24 2.24,0 5,0 7.76,0 10,2.24 10,5 10,7.76 7.76,10 5,10 2.24,10 0,7.76 0,5 Z"
       copytype="single_stretched"
       prop_scale="0.26458333"
       scale_y_rel="false"
       spacing="0"
       normal_offset="0"
       tang_offset="0"
       prop_units="false"
       vertical_pattern="false"
       fuse_tolerance="0" />
    <inkscape:path-effect
       effect="skeletal"
       id="path-effect817"
       is_visible="true"
       pattern="M 0,5 C 0,2.24 2.24,0 5,0 7.76,0 10,2.24 10,5 10,7.76 7.76,10 5,10 2.24,10 0,7.76 0,5 Z"
       copytype="single_stretched"
       prop_scale="0.26458333"
       scale_y_rel="false"
       spacing="0"
       normal_offset="0"
       tang_offset="0"
       prop_units="false"
       vertical_pattern="false"
       fuse_tolerance="0" />
  </defs>
  <sodipodi:namedview
     id="base"
     pagecolor="#ffffff"
     bordercolor="#666666"
     borderopacity="1.0"
     inkscape:pageopacity="0.0"
     inkscape:pageshadow="2"
     inkscape:zoom="0.5"
     inkscape:cx="162.25651"
     inkscape:cy="482.18785"
     inkscape:document-units="mm"
     inkscape:current-layer="layer1"
     showgrid="false"
     inkscape:window-width="1410"
     inkscape:window-height="856"
     inkscape:window-x="32"
     inkscape:window-y="4"
     inkscape:window-maximized="0" />
  <metadata
     id="metadata5">
    <rdf:RDF>
      <cc:Work
         rdf:about="">
        <dc:format>image/svg+xml</dc:format>
        <dc:type
           rdf:resource="http://purl.org/dc/dcmitype/StillImage" />
        <dc:title></dc:title>
      </cc:Work>
    </rdf:RDF>
  </metadata>
  <g
     inkscape:label="Layer 1"
     inkscape:groupmode="layer"
     id="layer1">
    <g
       id="g985"
       transform="matrix(4.3686671,0,0,4.3686671,-38.144412,-501.70511)">
      <path
         sodipodi:nodetypes="ccccc"
         inkscape:connector-curvature="0"
         id="rect882"
         d="m 19.196457,144.21059 h 11.244792 l -1.190625,5.82083 -10.054167,6.87917 z"
         style="opacity:0.9;fill:#d45500;stroke:none;stroke-width:3;stroke-miterlimit:4;stroke-dasharray:none;stroke-dashoffset:0" />
      <g
         id="g974">
        <ellipse
           style="opacity:0.9;fill:#00ff00;stroke:none;stroke-width:3;stroke-miterlimit:4;stroke-dasharray:none;stroke-dashoffset:0"
           id="path880"
           cx="20.372919"
           cy="133.15677"
           rx="7.5406251"
           ry="7.6067705" />
        <g
           id="g965"
           transform="translate(-19.05,20.769792)">
          <path
             sodipodi:nodetypes="ccccc"
             inkscape:connector-curvature="0"
             id="rect861"
             d="m 56.356247,116.2896 11.906249,5.29167 2.38125,20.24061 -14.287499,3.57188 z"
             style="opacity:0.9;fill:#00ffff;stroke:none;stroke-width:3;stroke-miterlimit:4;stroke-dasharray:none;stroke-dashoffset:0" />
          <path
             sodipodi:nodetypes="ccsccsssccssccccscssssscsc"
             inkscape:connector-curvature="0"
             d="m 57.943751,130.84168 c -0.397973,-1.0082 1.162689,-1.03387 1.675696,-0.66145 1.390218,1.00921 0.782381,3.08711 -0.352781,4.01285 -2.030539,1.65593 -5.005963,0.66192 -6.350002,-1.36702 -1.972432,-2.97757 -0.549478,-6.95503 2.381258,-8.68716 3.906211,-2.30865 8.915367,-0.44113 11.024309,3.3955 2.653888,4.828 0.335043,10.88121 -4.409736,13.36146 -5.746564,3.00392 -12.850184,0.23029 -15.698615,-5.42398 -3.356778,-6.66336 -0.126389,-14.82111 6.438214,-18.03576 7.579093,-3.71145 16.793342,-0.023 20.37292,7.45245 4.067345,8.49413 -0.0799,18.76649 -8.46669,22.71007 -9.408707,4.42411 -20.740302,-0.18257 -25.047227,-9.48093 -1.917435,-4.13961 -2.343608,-8.88753 -1.25173,-13.31258 m 2.221883,-11.16138 c 0.09286,-0.65003 0.922033,-0.19553 1.080382,0.15434 0.429116,0.94811 -0.513944,1.85956 -1.389062,2.00642 -1.56538,0.26271 -2.833453,-1.15277 -2.932466,-2.62378 -0.145306,-2.15877 1.796444,-3.82565 3.858505,-3.85851 2.748402,-0.0438 4.825006,2.44134 4.784551,5.09323 -0.05091,3.33712 -3.086695,5.82794 -6.327948,5.71059 -3.925592,-0.14213 -6.832925,-3.73229 -6.636636,-7.56267 0.231319,-4.51398 4.378017,-7.83919 8.797391,-7.56268 5.102343,0.31924 8.846309,5.02385 8.488721,10.03211 -0.406315,5.69072 -5.66974,9.85403 -11.266835,9.41477 -6.279095,-0.49279 -10.862183,-6.31569 -10.340805,-12.50156 0.578828,-6.86749 6.344311,-7.54913 13.118919,-6.94532"
             style="fill:#ff8080;fill-rule:evenodd;stroke:#ff9955;stroke-width:0.76499999;stroke-miterlimit:4;stroke-dasharray:0.3825, 0.3825;stroke-dashoffset:0"
             id="path843" />
          <text
             id="text901"
             y="114.70208"
             x="50.535412"
             style="font-style:normal;font-variant:normal;font-weight:normal;font-stretch:normal;font-size:10.58333302px;line-height:1.25;font-family:Phosphate;-inkscape-font-specification:'Phosphate, Normal';font-variant-ligatures:normal;font-variant-caps:normal;font-variant-numeric:normal;font-feature-settings:normal;text-align:start;letter-spacing:0px;word-spacing:0px;writing-mode:lr-tb;text-anchor:start;fill:#ffff00;fill-opacity:1;stroke:#f4eed7;stroke-width:0.26458332"
             xml:space="preserve"><tspan
               style="font-style:normal;font-variant:normal;font-weight:normal;font-stretch:normal;font-size:10.58333302px;font-family:Phosphate;-inkscape-font-specification:'Phosphate, Normal';font-variant-ligatures:normal;font-variant-caps:normal;font-variant-numeric:normal;font-feature-settings:normal;text-align:start;writing-mode:lr-tb;text-anchor:start;fill:#ffff00;stroke:#f4eed7;stroke-width:0.26458332"
               y="114.70208"
               x="50.535412"
               id="tspan899"
               sodipodi:role="line">TSB</tspan></text>
          <path
             transform="scale(0.26458333)"
             inkscape:connector-curvature="0"
             id="path903"
             d="m 211.87923,536.35138 c 0,-0.38308 -0.3375,-0.82602 -0.75,-0.98431 -0.45685,-0.17531 -0.75,-10e-4 -0.75,0.4465 0,0.40387 -0.33044,0.73431 -0.73431,0.73431 -0.44729,0 -0.62181,-0.29314 -0.4465,-0.75 0.1997,-0.52042 -0.0347,-0.75 -0.76569,-0.75 -0.57943,0 -1.0535,0.225 -1.0535,0.5 0,0.275 -0.225,0.5 -0.5,0.5 -0.275,0 -0.5,-0.3375 -0.5,-0.75 0,-0.41666 -0.44444,-0.75 -1,-0.75 -0.55,0 -1,0.225 -1,0.5 0,0.275 -0.24907,0.5 -0.55349,0.5 -0.30443,0 -0.42072,-0.34601 -0.25843,-0.76892 0.17599,-0.45862 -0.0426,-0.89849 -0.54152,-1.08996 -0.46315,-0.17772 -0.92437,-0.0577 -1.03324,0.26893 -0.3046,0.91381 -0.96859,0.69742 -1.25819,-0.41005 -0.26536,-1.01471 -1.35513,-1.4168 -1.35513,-0.5 0,0.275 -0.33044,0.5 -0.73431,0.5 -0.42369,0 -0.62077,-0.29585 -0.46591,-0.69942 0.35394,-0.92235 -0.73276,-1.5676 -1.44335,-0.85701 -0.87956,0.87956 -1.45336,0.64952 -1.10643,-0.44357 0.24752,-0.77988 0.0898,-1 -0.71631,-1 -0.56853,0 -1.03369,0.23828 -1.03369,0.52951 0,0.29123 -0.21517,0.39653 -0.47816,0.23399 -0.26299,-0.16254 -0.36015,-0.60306 -0.21592,-0.97893 0.37044,-0.96534 -0.70733,-1.48884 -1.57782,-0.76639 -0.75748,0.62865 -0.91196,0.37757 -0.74326,-1.20803 0.0835,-0.78444 -0.12418,-0.88359 -1.25566,-0.5996 -1.0733,0.26938 -1.29661,0.18636 -1.07214,-0.39859 0.35184,-0.91688 -0.90992,-2.11632 -1.39707,-1.32808 -0.53994,0.87364 -1.18807,0.0992 -0.88545,-1.05805 0.24844,-0.95002 0.12879,-1.03507 -1.04253,-0.74108 -1.15873,0.29082 -1.3082,0.19123 -1.20259,-0.80133 0.0974,-0.91567 -0.10201,-1.10939 -1.03812,-1.00834 -0.951,0.10266 -1.10207,-0.0534 -0.84272,-0.87053 0.43198,-1.36107 -0.13752,-2.21915 -0.99856,-1.50455 -0.4213,0.34965 -0.77072,0.37098 -0.96364,0.0588 -0.16647,-0.26935 -0.0838,-0.62498 0.18365,-0.79029 0.89517,-0.55325 -0.0245,-1.81864 -1.07858,-1.48408 -0.8274,0.26261 -0.93564,0.14252 -0.65852,-0.73063 0.46777,-1.4738 -0.12419,-2.2665 -1.09245,-1.46292 -0.6776,0.56236 -0.72581,0.43591 -0.39975,-1.04861 0.34007,-1.54834 0.28337,-1.66523 -0.68497,-1.412 -1.11939,0.29273 -1.55975,-0.87896 -0.46721,-1.24314 0.88021,-0.29341 -0.001,-1.38716 -1.11804,-1.38716 -1.05817,0 -1.33048,-0.79667 -0.38053,-1.11332 0.3266,-0.10887 0.44665,-0.57009 0.26892,-1.03324 -0.19147,-0.49897 -0.63133,-0.7175 -1.08995,-0.54152 -0.42291,0.16229 -0.76893,0.046 -0.76893,-0.25843 0,-0.30442 0.225,-0.55349 0.5,-0.55349 0.275,0 0.5,-0.46516 0.5,-1.03369 0,-0.80616 -0.22012,-0.96383 -1,-0.71631 -1.14241,0.36259 -1.40566,-0.62572 -0.28157,-1.05707 0.97494,-0.37412 0.46074,-1.51416 -0.87802,-1.94666 -0.96536,-0.31187 -0.98679,-0.37969 -0.18687,-0.59143 0.97198,-0.25727 0.97741,-1.90484 0.006,-1.90484 -1.00574,0 -1.33564,-0.71392 -0.48138,-1.04172 1.02822,-0.39457 1.08326,-1.70828 0.0716,-1.70828 -0.4125,0 -0.75,-0.225 -0.75,-0.5 0,-0.275 0.225,-0.5 0.5,-0.5 0.275,0 0.5,-0.45 0.5,-1 0,-0.55556 -0.33333,-1 -0.75,-1 -0.4125,0 -0.75,-0.225 -0.75,-0.5 0,-0.275 0.3375,-0.5 0.75,-0.5 0.4125,0 0.75,-0.3375 0.75,-0.75 0,-0.4125 -0.3375,-0.75 -0.75,-0.75 -0.4125,0 -0.75,-0.3375 -0.75,-0.75 0,-0.4125 0.3375,-0.75 0.75,-0.75 0.4125,0 0.75,-0.3375 0.75,-0.75 0,-0.4125 -0.3375,-0.75 -0.75,-0.75 -0.4125,0 -0.75,-0.225 -0.75,-0.5 0,-0.275 0.3375,-0.5 0.75,-0.5 0.41667,0 0.75,-0.44444 0.75,-1 0,-0.55556 -0.33333,-1 -0.75,-1 -0.4125,0 -0.75,-0.225 -0.75,-0.5 0,-0.275 0.45,-0.5 1,-0.5 1.16419,0 1.35133,-1.25819 0.25,-1.68081 -0.4125,-0.15829 -0.75,-0.54394 -0.75,-0.85699 0,-0.31305 0.33155,-0.44196 0.73678,-0.28646 0.40522,0.1555 0.92373,-0.0513 1.15223,-0.45966 0.35041,-0.62614 2.27062,-0.17677 12.26323,2.86987 10.50621,3.20323 13.55044,4.41405 11.09776,4.41405 -0.97458,0 -0.97458,1.4452 0,1.81919 0.9706,0.37245 0.9706,1.18081 0,1.18081 -0.41667,0 -0.75,0.44444 -0.75,1 0,0.66667 0.33333,1 1,1 0.55,0 1,0.225 1,0.5 0,0.275 -0.354,0.5 -0.78666,0.5 -0.48475,0 -0.71727,0.33581 -0.60584,0.875 0.0995,0.48125 0.56594,0.84375 1.03666,0.80556 0.98895,-0.0802 1.10011,0.37517 0.28945,1.18583 -0.7797,0.7797 -0.16233,2.18999 0.79746,1.82169 0.83153,-0.31909 1.07617,0.56302 0.29077,1.04842 -0.85797,0.53026 0.0327,1.81358 1.03737,1.49471 0.99167,-0.31475 1.31201,0.48035 0.41651,1.0338 -0.73481,0.45414 0.49078,1.85483 1.33838,1.52958 0.80648,-0.30948 1.39842,0.51505 0.6859,0.95541 -0.92834,0.57374 0.0789,1.33861 1.34444,1.02097 1.07199,-0.26905 1.19246,-0.1749 0.91098,0.71195 -0.37579,1.18401 1.09688,2.06508 1.73254,1.03656 0.27454,-0.44421 0.48646,-0.46539 0.72905,-0.0729 0.1881,0.30436 0.20197,0.77997 0.0308,1.05691 -0.17116,0.27694 0.0833,0.65492 0.56551,0.83996 0.50425,0.1935 0.96025,0.0858 1.07335,-0.25353 0.32096,-0.96287 1.11332,-0.67104 1.11332,0.41004 0,0.66667 0.33333,1 1,1 0.55,0 1,-0.225 1,-0.5 0,-0.95316 0.75302,-0.48569 1.375,0.85358 0.78799,1.69674 0.90472,25.64642 0.125,25.64642 -0.275,0 -0.5,-0.31343 -0.5,-0.6965 z m -24.74768,-27.49337 c 0.70368,-0.51454 1.30627,-0.56339 2.37109,-0.19219 1.74737,0.60914 2.03196,0.378 1.44096,-1.17035 -0.35737,-0.93624 -0.23158,-1.44309 0.57641,-2.32259 l 1.03353,-1.125 h -1.69337 c -1.24645,0 -1.98464,-0.3629 -2.79697,-1.375 l -1.10359,-1.375 -0.53268,1.38781 c -0.29298,0.7633 -0.81732,1.47297 -1.1652,1.57704 -2.75782,0.82503 -2.73055,0.78465 -1.2575,1.86247 0.84313,0.61692 1.375,1.47347 1.375,2.21438 0,1.37929 0.40939,1.50041 1.75232,0.51843 z m -7.53421,-15.53312 c 1.79887,0.33747 1.80024,0.33634 1.27505,-1.04501 -0.44468,-1.16959 -0.35559,-1.56399 0.5777,-2.55742 l 1.10345,-1.17458 h -1.67993 c -1.02747,0 -2.12149,-0.41482 -2.81685,-1.06808 l -1.13693,-1.06809 -0.58937,1.29353 c -0.35792,0.78555 -1.1513,1.41695 -2.0203,1.60781 -1.76141,0.38687 -1.81768,0.8981 -0.18093,1.64385 0.9349,0.42597 1.25,0.95327 1.25,2.09179 0,1.49491 0.0217,1.50803 1.20865,0.7303 0.85087,-0.5575 1.74173,-0.69193 3.00946,-0.4541 z"
             style="opacity:0.9;fill:#c83737;stroke:#f4eed7;stroke-width:1.44566929;stroke-miterlimit:4;stroke-dasharray:0.72283465, 0.72283465;stroke-dashoffset:0" />
        </g>
      </g>
    </g>
    <path
       style="opacity:0.9;fill:#ffffff;stroke:#f4eed7;stroke-width:5.78267717;stroke-miterlimit:4;stroke-dasharray:2.89133858, 2.89133858;stroke-dashoffset:0"
       d="m 309.36523,594.7945 c 0.89973,-3.44055 0.44749,-4.07381 -2.18724,-3.06277 -2.18556,0.83868 -3.32148,0.2486 -3.32148,-1.72543 0,-1.65 1.575,-3.58111 3.5,-4.29135 1.925,-0.71024 4.14124,-2.25699 4.92497,-3.43723 1.80447,-2.71737 9.57503,-3.25204 9.57503,-0.65883 0,1.0675 1.35,1.42286 3,0.7897 6.88685,-2.64273 2.45516,6.06293 -5.71329,11.22325 -10.49475,6.62993 -11.23059,6.71743 -9.77799,1.16266 z"
       id="path987"
       inkscape:connector-curvature="0"
       transform="scale(0.26458333)" />
    <path
       style="opacity:0.9;fill:#ffffff;stroke:#f4eed7;stroke-width:5.78267717;stroke-miterlimit:4;stroke-dasharray:2.89133858, 2.89133858;stroke-dashoffset:0"
       d="m 317.18255,598.0034 c 0.60606,-1.57936 2.35563,-2.87156 3.88794,-2.87156 1.53231,0 2.78602,-0.80371 2.78602,-1.78602 0,-0.98231 1.25066,-2.26595 2.77925,-2.85252 1.93931,-0.74418 2.69485,0.39959 2.5,3.78461 -0.15359,2.66811 -0.72925,4.95436 -1.27925,5.08056 -7.51361,1.72402 -11.65383,1.19842 -10.67396,-1.35507 z"
       id="path989"
       inkscape:connector-curvature="0"
       transform="scale(0.26458333)" />
    <path
       style="opacity:0.9;fill:#ffffff;stroke:#f4eed7;stroke-width:5.78267717;stroke-miterlimit:4;stroke-dasharray:2.89133858, 2.89133858;stroke-dashoffset:0"
       d="m 325.85651,600.78413 c 0,-3.0843 0.69827,-3.41933 3.73704,-1.79303 2.05537,1.1 4.30537,1.43167 5,0.73704 0.69463,-0.69463 1.26296,-0.31789 1.26296,0.83721 0,1.1551 -2.25,2.5303 -5,3.05599 -3.9117,0.74777 -5,0.13023 -5,-2.83721 z"
       id="path991"
       inkscape:connector-curvature="0"
       transform="scale(0.26458333)" />
  </g>
</svg>
